<mxfile host="Electron" modified="2024-10-29T08:20:42.742Z" agent="Mozilla/5.0 (Windows NT 10.0; Win64; x64) AppleWebKit/537.36 (KHTML, like Gecko) draw.io/24.6.4 Chrome/124.0.6367.207 Electron/30.0.6 Safari/537.36" etag="G8kzIaKltrua9-Qw6hs-" version="24.6.4" type="device">
  <diagram name="Page-1" id="VD_9dOLzEmSP28ESohJi">
    <mxGraphModel dx="1434" dy="844" grid="1" gridSize="10" guides="1" tooltips="1" connect="1" arrows="1" fold="1" page="1" pageScale="1" pageWidth="827" pageHeight="1169" math="0" shadow="0">
      <root>
        <mxCell id="0" />
        <mxCell id="1" parent="0" />
        <mxCell id="wwwdvhTlD2MUM2WyzAj8-5" style="edgeStyle=orthogonalEdgeStyle;rounded=0;orthogonalLoop=1;jettySize=auto;html=1;exitX=0.5;exitY=1;exitDx=0;exitDy=0;entryX=0.5;entryY=0;entryDx=0;entryDy=0;" edge="1" parent="1" source="wwwdvhTlD2MUM2WyzAj8-1" target="wwwdvhTlD2MUM2WyzAj8-3">
          <mxGeometry relative="1" as="geometry" />
        </mxCell>
        <mxCell id="wwwdvhTlD2MUM2WyzAj8-1" value="Start" style="ellipse;whiteSpace=wrap;html=1;aspect=fixed;" vertex="1" parent="1">
          <mxGeometry x="120" y="40" width="50" height="50" as="geometry" />
        </mxCell>
        <mxCell id="wwwdvhTlD2MUM2WyzAj8-6" style="edgeStyle=orthogonalEdgeStyle;rounded=0;orthogonalLoop=1;jettySize=auto;html=1;exitX=0.5;exitY=1;exitDx=0;exitDy=0;entryX=0.5;entryY=0;entryDx=0;entryDy=0;" edge="1" parent="1" source="wwwdvhTlD2MUM2WyzAj8-3" target="wwwdvhTlD2MUM2WyzAj8-4">
          <mxGeometry relative="1" as="geometry" />
        </mxCell>
        <mxCell id="wwwdvhTlD2MUM2WyzAj8-15" style="edgeStyle=orthogonalEdgeStyle;rounded=0;orthogonalLoop=1;jettySize=auto;html=1;exitX=1;exitY=0.5;exitDx=0;exitDy=0;entryX=0.5;entryY=0;entryDx=0;entryDy=0;" edge="1" parent="1" source="wwwdvhTlD2MUM2WyzAj8-3" target="wwwdvhTlD2MUM2WyzAj8-14">
          <mxGeometry relative="1" as="geometry" />
        </mxCell>
        <mxCell id="wwwdvhTlD2MUM2WyzAj8-3" value="Is the target KO&#39;d ?" style="rhombus;whiteSpace=wrap;html=1;" vertex="1" parent="1">
          <mxGeometry x="105" y="130" width="80" height="80" as="geometry" />
        </mxCell>
        <mxCell id="wwwdvhTlD2MUM2WyzAj8-8" style="edgeStyle=orthogonalEdgeStyle;rounded=0;orthogonalLoop=1;jettySize=auto;html=1;exitX=0.5;exitY=1;exitDx=0;exitDy=0;entryX=0.5;entryY=0;entryDx=0;entryDy=0;" edge="1" parent="1" source="wwwdvhTlD2MUM2WyzAj8-4" target="wwwdvhTlD2MUM2WyzAj8-7">
          <mxGeometry relative="1" as="geometry" />
        </mxCell>
        <mxCell id="wwwdvhTlD2MUM2WyzAj8-16" style="edgeStyle=orthogonalEdgeStyle;rounded=0;orthogonalLoop=1;jettySize=auto;html=1;exitX=1;exitY=0.5;exitDx=0;exitDy=0;entryX=0.5;entryY=0;entryDx=0;entryDy=0;" edge="1" parent="1" source="wwwdvhTlD2MUM2WyzAj8-4" target="wwwdvhTlD2MUM2WyzAj8-14">
          <mxGeometry relative="1" as="geometry" />
        </mxCell>
        <mxCell id="wwwdvhTlD2MUM2WyzAj8-4" value="Is the target&#39;s resistance to that ailment 100% ?" style="rhombus;whiteSpace=wrap;html=1;" vertex="1" parent="1">
          <mxGeometry x="80" y="250" width="130" height="80" as="geometry" />
        </mxCell>
        <mxCell id="wwwdvhTlD2MUM2WyzAj8-10" style="edgeStyle=orthogonalEdgeStyle;rounded=0;orthogonalLoop=1;jettySize=auto;html=1;exitX=0.5;exitY=1;exitDx=0;exitDy=0;entryX=0.5;entryY=0;entryDx=0;entryDy=0;" edge="1" parent="1" source="wwwdvhTlD2MUM2WyzAj8-7" target="wwwdvhTlD2MUM2WyzAj8-9">
          <mxGeometry relative="1" as="geometry" />
        </mxCell>
        <mxCell id="wwwdvhTlD2MUM2WyzAj8-7" value="Roll [0,99]" style="rounded=1;whiteSpace=wrap;html=1;" vertex="1" parent="1">
          <mxGeometry x="85" y="380" width="120" height="30" as="geometry" />
        </mxCell>
        <mxCell id="wwwdvhTlD2MUM2WyzAj8-13" style="edgeStyle=orthogonalEdgeStyle;rounded=0;orthogonalLoop=1;jettySize=auto;html=1;exitX=0.5;exitY=1;exitDx=0;exitDy=0;entryX=0.5;entryY=0;entryDx=0;entryDy=0;" edge="1" parent="1" source="wwwdvhTlD2MUM2WyzAj8-9" target="wwwdvhTlD2MUM2WyzAj8-12">
          <mxGeometry relative="1" as="geometry" />
        </mxCell>
        <mxCell id="wwwdvhTlD2MUM2WyzAj8-17" style="edgeStyle=orthogonalEdgeStyle;rounded=0;orthogonalLoop=1;jettySize=auto;html=1;exitX=1;exitY=0.5;exitDx=0;exitDy=0;entryX=0.5;entryY=0;entryDx=0;entryDy=0;" edge="1" parent="1" source="wwwdvhTlD2MUM2WyzAj8-9" target="wwwdvhTlD2MUM2WyzAj8-14">
          <mxGeometry relative="1" as="geometry" />
        </mxCell>
        <mxCell id="wwwdvhTlD2MUM2WyzAj8-9" value="Roll value &amp;gt; target&#39;s resistance ?" style="rhombus;whiteSpace=wrap;html=1;" vertex="1" parent="1">
          <mxGeometry x="105" y="450" width="80" height="80" as="geometry" />
        </mxCell>
        <mxCell id="wwwdvhTlD2MUM2WyzAj8-12" value="Status is inflicted" style="rounded=1;whiteSpace=wrap;html=1;" vertex="1" parent="1">
          <mxGeometry x="85" y="569.5" width="120" height="30" as="geometry" />
        </mxCell>
        <mxCell id="wwwdvhTlD2MUM2WyzAj8-14" value="Status is NOT inflicted" style="rounded=1;whiteSpace=wrap;html=1;" vertex="1" parent="1">
          <mxGeometry x="320" y="570" width="120" height="30" as="geometry" />
        </mxCell>
        <mxCell id="wwwdvhTlD2MUM2WyzAj8-18" value="Yes" style="text;html=1;align=center;verticalAlign=middle;whiteSpace=wrap;rounded=0;" vertex="1" parent="1">
          <mxGeometry x="180" y="140" width="60" height="30" as="geometry" />
        </mxCell>
        <mxCell id="wwwdvhTlD2MUM2WyzAj8-19" value="Yes" style="text;html=1;align=center;verticalAlign=middle;whiteSpace=wrap;rounded=0;" vertex="1" parent="1">
          <mxGeometry x="205" y="260" width="60" height="30" as="geometry" />
        </mxCell>
        <mxCell id="wwwdvhTlD2MUM2WyzAj8-20" value="Yes" style="text;html=1;align=center;verticalAlign=middle;whiteSpace=wrap;rounded=0;" vertex="1" parent="1">
          <mxGeometry x="85" y="530" width="60" height="30" as="geometry" />
        </mxCell>
        <mxCell id="wwwdvhTlD2MUM2WyzAj8-21" value="No" style="text;html=1;align=center;verticalAlign=middle;whiteSpace=wrap;rounded=0;" vertex="1" parent="1">
          <mxGeometry x="85" y="210" width="60" height="30" as="geometry" />
        </mxCell>
        <mxCell id="wwwdvhTlD2MUM2WyzAj8-22" value="No" style="text;html=1;align=center;verticalAlign=middle;whiteSpace=wrap;rounded=0;" vertex="1" parent="1">
          <mxGeometry x="85" y="340" width="60" height="30" as="geometry" />
        </mxCell>
        <mxCell id="wwwdvhTlD2MUM2WyzAj8-23" value="No" style="text;html=1;align=center;verticalAlign=middle;whiteSpace=wrap;rounded=0;" vertex="1" parent="1">
          <mxGeometry x="185" y="460" width="60" height="30" as="geometry" />
        </mxCell>
      </root>
    </mxGraphModel>
  </diagram>
</mxfile>
